<svg width="40" height="40" viewBox="0 0 40 40" fill="none" xmlns="http://www.w3.org/2000/svg">
  <rect x="8" y="12" width="24" height="16" rx="2" fill="#FBBF24"/>
  <rect x="12" y="16" width="16" height="8" rx="1" fill="#1F2937"/>
  <circle cx="20" cy="20" r="3" fill="#FBBF24"/>
  <path d="M20 22C21.1046 22 22 21.1046 22 20C22 18.8954 21.1046 18 20 18" stroke="#FBBF24" stroke-width="2" stroke-linecap="round"/>
  <path d="M12 12V10C12 8.89543 12.8954 8 14 8H26C27.1046 8 28 8.89543 28 10V12" stroke="#F59E0B" stroke-width="2"/>
  <path d="M12 28V30C12 31.1046 12.8954 32 14 32H26C27.1046 32 28 31.1046 28 30V28" stroke="#F59E0B" stroke-width="2"/>
</svg>
